<?xml version="1.0" encoding="utf-8"?>
<!-- Generator: Adobe Illustrator 22.0.1, SVG Export Plug-In . SVG Version: 6.00 Build 0)  -->
<svg version="1.1" id="Layer_1" xmlns="http://www.w3.org/2000/svg" xmlns:xlink="http://www.w3.org/1999/xlink" x="0px" y="0px"
	 viewBox="0 0 144.6 83.6" style="enable-background:new 0 0 144.6 83.6;" xml:space="preserve">
<style type="text/css">
	.st0{clip-path:url(#SVGID_2_);fill:url(#SVGID_3_);}
	.st1{clip-path:url(#SVGID_5_);fill:url(#SVGID_6_);}
	.st2{clip-path:url(#SVGID_8_);fill:#575756;}
</style>
<g>
	<defs>
		<path id="SVGID_1_" d="M80.3,9.6c-9.3,20.3-31,41-48.4,46.3C14.4,61.2,7.8,49,17.2,28.7l-9.3,2.8C3.6,40.9,1.4,49.2,1.4,56v0.6
			c0.1,15,10.6,22,28.9,16.4C57,65,90.1,33.3,104.2,2.4L80.3,9.6z"/>
	</defs>
	<clipPath id="SVGID_2_">
		<use xlink:href="#SVGID_1_"  style="overflow:visible;"/>
	</clipPath>
	
		<linearGradient id="SVGID_3_" gradientUnits="userSpaceOnUse" x1="-242.363" y1="456.7196" x2="-241.363" y2="456.7196" gradientTransform="matrix(97.831 -68.502 -68.502 -97.831 55004.1758 28151.3027)">
		<stop  offset="0" style="stop-color:#A21007"/>
		<stop  offset="0.244" style="stop-color:#B90D11"/>
		<stop  offset="0.5555" style="stop-color:#D0091B"/>
		<stop  offset="0.75" style="stop-color:#D9081F"/>
		<stop  offset="1" style="stop-color:#D9081F"/>
	</linearGradient>
	<polygon class="st0" points="-34.4,27.5 70.4,-45.9 140,53.6 35.2,126.9 	"/>
</g>
<g>
	<defs>
		<path id="SVGID_4_" d="M21.4,27.4c-4.8,10.4-1.4,16.6,7.5,13.9c8.9-2.7,20-13.3,24.7-23.6L21.4,27.4z"/>
	</defs>
	<clipPath id="SVGID_5_">
		<use xlink:href="#SVGID_4_"  style="overflow:visible;"/>
	</clipPath>
	
		<linearGradient id="SVGID_6_" gradientUnits="userSpaceOnUse" x1="-243.4166" y1="450.2287" x2="-242.4166" y2="450.2287" gradientTransform="matrix(32.7217 -22.912 -22.912 -32.7217 18301.5977 9195.8193)">
		<stop  offset="0" style="stop-color:#A21007"/>
		<stop  offset="0.244" style="stop-color:#B90D11"/>
		<stop  offset="0.5555" style="stop-color:#D0091B"/>
		<stop  offset="0.75" style="stop-color:#D9081F"/>
		<stop  offset="1" style="stop-color:#D9081F"/>
	</linearGradient>
	<polygon class="st1" points="4.2,26.3 41.4,0.3 65.9,35.3 28.8,61.4 	"/>
</g>
<g>
	<defs>
		<rect id="SVGID_7_" x="1.4" y="2.4" width="141.8" height="80.8"/>
	</defs>
	<clipPath id="SVGID_8_">
		<use xlink:href="#SVGID_7_"  style="overflow:visible;"/>
	</clipPath>
	<path class="st2" d="M94.5,74.8c-0.9,0-1.8-0.2-2.4-0.3v5.7H88V61.5c1.2-0.5,3.5-1,6-1c5.3,0,8.1,2.7,8.1,7.2
		C102.1,71.9,99.5,74.8,94.5,74.8 M94,63.2c-0.8,0-1.5,0.1-1.9,0.3v8.4c0.3,0.1,1.2,0.3,1.9,0.3c2.6,0,3.9-1.8,3.9-4.5
		C98,64.9,96.6,63.2,94,63.2 M111.6,75c-4.7,0-7.4-3.1-7.4-7.3c0-4.1,2.6-7.2,7.4-7.2c4.8,0,7.4,3.1,7.4,7.2
		C119,71.9,116.3,75,111.6,75 M111.6,63.2c-2.2,0-3.3,1.7-3.3,4.5c0,2.8,1.1,4.4,3.3,4.4c2.2,0,3.3-1.6,3.3-4.4
		C114.8,64.9,113.8,63.2,111.6,63.2 M125.8,75c-2,0-4.1-0.5-5.3-1l1.3-2.7c0.8,0.4,2.6,0.9,3.8,0.9c1.5,0,2.5-0.6,2.5-1.5
		c0-1-1.1-1.5-2.5-1.9c-2.1-0.6-4.7-1.5-4.7-4.2c0-2.4,2.2-4.1,6-4.1c2.1,0,3.8,0.4,5,1l-1.3,2.4c-0.7-0.4-2.2-0.8-3.2-0.8
		c-1.4,0-2.3,0.6-2.3,1.4c0,1.1,1.1,1.5,2.5,1.9c2.1,0.7,4.8,1.4,4.8,4.2C132.4,73.3,130.1,75,125.8,75 M140.7,74.9
		c-3.2,0-4.6-1.5-4.6-4.4v-7.1H134v-2.6h2.1v-3.1l4.1-1v4.1h3.1v2.6h-3.1v6.8c0,1.1,0.8,1.5,1.9,1.5c0.4,0,0.9-0.1,1.2-0.2v2.9
		C142.7,74.7,141.7,74.9,140.7,74.9 M85.4,67.7c0,4.5-2.9,7.2-8.1,7.2c-2.5,0-4.8-0.5-6-1V55.1h4.1v5.7c0.5-0.2,1.5-0.3,2.3-0.3
		C82.7,60.5,85.4,63.4,85.4,67.7 M81.2,67.7c0-2.6-1.3-4.5-3.9-4.5c-0.7,0-1.6,0.1-1.9,0.3v8.4c0.4,0.2,1.2,0.3,1.9,0.3
		C79.8,72.1,81.2,70.5,81.2,67.7"/>
	<path class="st2" d="M75.5,90.8c0,0.4,0,0.6-0.1,0.7c0,0.1-0.1,0.2-0.2,0.2c-0.1,0-0.1,0-0.2-0.1c-0.1,0-0.2-0.1-0.3-0.1
		c-0.1,0-0.3-0.1-0.5-0.1c-0.2,0-0.4-0.1-0.6-0.1c-0.4,0-0.7,0.1-1,0.3c-0.3,0.2-0.4,0.4-0.4,0.7c0,0.2,0.1,0.4,0.3,0.6
		c0.2,0.2,0.4,0.3,0.6,0.5c0.3,0.1,0.5,0.3,0.8,0.4c0.3,0.1,0.6,0.3,0.8,0.5c0.3,0.2,0.5,0.4,0.7,0.7c0.2,0.3,0.3,0.6,0.3,1
		c0,0.3-0.1,0.6-0.2,0.9c-0.1,0.3-0.3,0.5-0.6,0.7s-0.5,0.3-0.8,0.4s-0.6,0.1-0.9,0.1c-0.4,0-0.7,0-1-0.1c-0.3-0.1-0.6-0.2-0.9-0.3
		c0-0.4,0-0.6,0.1-0.8c0-0.1,0.1-0.2,0.1-0.2c0.1,0,0.2,0,0.3,0.1c0.1,0.1,0.3,0.1,0.4,0.2c0.2,0.1,0.3,0.1,0.5,0.2
		c0.2,0.1,0.4,0.1,0.7,0.1c0.4,0,0.7-0.1,1-0.3c0.3-0.2,0.4-0.4,0.4-0.7c0-0.3-0.1-0.5-0.3-0.7s-0.4-0.3-0.6-0.5
		c-0.3-0.2-0.5-0.3-0.8-0.5c-0.3-0.2-0.6-0.3-0.8-0.5c-0.3-0.2-0.5-0.4-0.6-0.7s-0.3-0.6-0.3-0.9c0-0.3,0.1-0.6,0.2-0.9
		c0.1-0.3,0.3-0.5,0.5-0.7s0.5-0.3,0.8-0.4c0.3-0.1,0.7-0.1,1-0.1c0.3,0,0.5,0,0.8,0.1C74.9,90.6,75.2,90.7,75.5,90.8"/>
	<path class="st2" d="M84.5,96.6l0.2,0.8c-0.8,0.6-1.6,0.8-2.5,0.8c-0.6,0-1-0.1-1.4-0.3c-0.4-0.2-0.8-0.5-1-0.8
		c-0.3-0.3-0.5-0.7-0.6-1.2c-0.1-0.5-0.2-1-0.2-1.5c0-0.5,0.1-1,0.2-1.4c0.1-0.5,0.4-0.9,0.7-1.3c0.3-0.4,0.6-0.7,1-0.9
		c0.4-0.2,0.9-0.3,1.4-0.3c0.4,0,0.8,0.1,1.1,0.2c0.3,0.1,0.6,0.3,0.8,0.6c0.2,0.3,0.4,0.6,0.5,0.9c0.1,0.3,0.2,0.7,0.2,1.1
		c0,0.2,0,0.4,0,0.5C83.9,94,83.1,94,82.4,94c-0.8,0-1.6,0-2.4,0v0.3c0,0.4,0.1,0.8,0.2,1.1c0.1,0.3,0.3,0.7,0.5,0.9
		c0.2,0.3,0.5,0.5,0.8,0.6c0.3,0.2,0.6,0.2,1,0.2C83.1,97.3,83.8,97.1,84.5,96.6L84.5,96.6z M80,93.3c0.6,0,1.2,0,1.8,0
		c0.6,0,1.2,0,1.8-0.1c0-0.2,0-0.4-0.1-0.6c-0.1-0.2-0.2-0.4-0.3-0.6c-0.1-0.2-0.3-0.3-0.5-0.4c-0.2-0.1-0.4-0.2-0.7-0.2
		c-0.3,0-0.5,0.1-0.7,0.2c-0.2,0.1-0.4,0.3-0.6,0.4c-0.2,0.2-0.3,0.4-0.4,0.6C80.1,92.8,80.1,93,80,93.3"/>
	<path class="st2" d="M86.6,90.7h1l0,1.2c0.4-0.4,0.8-0.7,1.3-1c0.5-0.3,1-0.4,1.5-0.4c0.4,0,0.8,0.1,1.1,0.2
		c0.3,0.2,0.5,0.4,0.6,0.6c0.2,0.3,0.3,0.6,0.3,0.9c0.1,0.3,0.1,0.7,0.1,1v4.8h-1.1v-4.7c0-0.2,0-0.4,0-0.7s-0.1-0.4-0.2-0.6
		c-0.1-0.2-0.2-0.4-0.4-0.5c-0.2-0.1-0.4-0.2-0.7-0.2c-0.2,0-0.5,0-0.7,0.1c-0.2,0.1-0.4,0.2-0.6,0.3c-0.2,0.1-0.4,0.3-0.6,0.4
		c-0.2,0.2-0.4,0.3-0.5,0.5v5.3h-1.1V90.7z"/>
	<path class="st2" d="M104.5,96.4l0.2,0.8c-0.4,0.3-0.7,0.6-1.1,0.7c-0.4,0.2-0.8,0.3-1.2,0.3c-0.6,0-1-0.1-1.5-0.3
		c-0.4-0.2-0.8-0.5-1.1-0.8c-0.3-0.3-0.5-0.7-0.7-1.2c-0.2-0.4-0.2-0.9-0.2-1.4c0-0.6,0.1-1.1,0.3-1.6c0.2-0.5,0.5-0.9,0.8-1.3
		c0.3-0.4,0.8-0.6,1.2-0.9c0.5-0.2,1-0.3,1.5-0.3c0.3,0,0.7,0,1,0.1c0.3,0.1,0.6,0.1,0.9,0.3c0,0.4-0.1,0.7-0.1,0.9
		s-0.1,0.2-0.2,0.2c-0.1,0-0.2,0-0.3-0.1c-0.1,0-0.2-0.1-0.3-0.1c-0.1-0.1-0.3-0.1-0.5-0.1c-0.2,0-0.4-0.1-0.7-0.1
		c-0.4,0-0.7,0.1-1,0.2c-0.3,0.2-0.6,0.4-0.8,0.6c-0.2,0.3-0.4,0.6-0.5,0.9c-0.1,0.3-0.2,0.7-0.2,1.1c0,0.4,0.1,0.8,0.2,1.2
		c0.1,0.4,0.3,0.7,0.5,0.9c0.2,0.3,0.5,0.5,0.8,0.6c0.3,0.2,0.6,0.2,1,0.2c0.4,0,0.7-0.1,1.1-0.3C103.9,96.9,104.2,96.6,104.5,96.4
		L104.5,96.4z"/>
	<path class="st2" d="M106.4,86.2h1.1v5.6c0.4-0.4,0.8-0.7,1.3-0.9c0.5-0.3,0.9-0.4,1.5-0.4c0.4,0,0.8,0.1,1.1,0.2
		c0.3,0.2,0.5,0.4,0.6,0.6c0.2,0.3,0.3,0.5,0.3,0.9c0.1,0.3,0.1,0.7,0.1,1v4.9h-1.1v-4.7c0-0.2,0-0.4,0-0.7c0-0.2-0.1-0.4-0.2-0.6
		c-0.1-0.2-0.2-0.4-0.4-0.5c-0.2-0.1-0.4-0.2-0.7-0.2c-0.2,0-0.5,0-0.7,0.1c-0.2,0.1-0.4,0.2-0.6,0.3c-0.2,0.1-0.4,0.3-0.6,0.4
		c-0.2,0.2-0.4,0.3-0.5,0.5v5.3h-1.1V86.2z"/>
	<path class="st2" d="M118.2,97c-0.4,0.4-0.8,0.7-1.2,0.9c-0.4,0.2-0.8,0.4-1.3,0.4c-0.6,0-1.1-0.2-1.4-0.5
		c-0.3-0.3-0.5-0.8-0.5-1.3c0-0.4,0.1-0.8,0.3-1.1c0.2-0.3,0.5-0.5,0.9-0.7c0.4-0.2,0.8-0.4,1.4-0.5c0.5-0.1,1.1-0.3,1.8-0.5v-0.4
		c0-0.3,0-0.5-0.1-0.8s-0.1-0.4-0.2-0.6c-0.1-0.2-0.3-0.3-0.4-0.4c-0.2-0.1-0.4-0.1-0.7-0.1c-0.3,0-0.6,0-0.8,0.1
		c-0.3,0.1-0.5,0.1-0.7,0.2c-0.2,0.1-0.4,0.1-0.5,0.2c-0.1,0.1-0.2,0.1-0.3,0.1c-0.1,0-0.1-0.1-0.1-0.2c0-0.1,0-0.3,0-0.7
		c0.5-0.2,1-0.4,1.4-0.5c0.5-0.1,0.9-0.2,1.3-0.2c0.8,0,1.4,0.2,1.7,0.7c0.3,0.4,0.5,1.1,0.5,2v4.9h-1L118.2,97z M118.2,94.4
		c-0.6,0.2-1,0.3-1.4,0.4c-0.4,0.1-0.7,0.2-1,0.4c-0.3,0.1-0.5,0.3-0.6,0.4c-0.1,0.2-0.2,0.4-0.2,0.6c0,0.3,0.1,0.6,0.3,0.8
		c0.2,0.2,0.4,0.3,0.7,0.3c0.4,0,0.7-0.1,1.1-0.4c0.4-0.2,0.7-0.5,1.1-0.9V94.4z"/>
	<path class="st2" d="M121.5,90.7h1l0,2c0.4-0.8,0.7-1.4,1.2-1.7c0.4-0.3,0.8-0.5,1.3-0.5h0.1c0,0,0.1,0,0.2,0c0,0.2,0,0.4,0,0.6
		c0,0.1,0,0.3,0,0.3c0,0.1-0.1,0.1-0.1,0.2c-0.1,0-0.1,0-0.3,0c-0.2,0-0.4,0.1-0.6,0.1c-0.2,0.1-0.4,0.2-0.5,0.3
		c-0.2,0.2-0.4,0.4-0.5,0.6c-0.2,0.3-0.4,0.6-0.6,1v4.3h-1.1V90.7z"/>
	<path class="st2" d="M131.3,91.8c0.1,0.2,0.2,0.4,0.2,0.6c0.1,0.2,0.1,0.5,0.1,0.7c0,0.4-0.1,0.8-0.2,1.1c-0.1,0.3-0.3,0.6-0.6,0.9
		c-0.3,0.2-0.6,0.4-0.9,0.6c-0.4,0.1-0.7,0.2-1.2,0.2c-0.3,0-0.5,0-0.8-0.1c-0.3,0.2-0.5,0.4-0.7,0.6c-0.2,0.2-0.3,0.4-0.3,0.5
		c0,0.1,0,0.2,0.1,0.3c0.1,0.1,0.2,0.2,0.3,0.2c0.1,0.1,0.3,0.1,0.6,0.1c0.2,0,0.6,0,0.9,0.1c0.5,0,0.9,0,1.3,0.1s0.8,0.1,1.1,0.3
		c0.3,0.1,0.6,0.3,0.7,0.6c0.2,0.2,0.3,0.6,0.3,1c0,0.4-0.1,0.8-0.3,1.1c-0.2,0.3-0.5,0.6-0.8,0.9c-0.3,0.2-0.8,0.4-1.2,0.6
		c-0.5,0.1-1,0.2-1.6,0.2c-0.4,0-0.8,0-1.2-0.1c-0.4-0.1-0.7-0.2-0.9-0.4c-0.3-0.2-0.5-0.4-0.6-0.6s-0.2-0.5-0.2-0.8
		c0-0.3,0.1-0.7,0.3-1c0.2-0.3,0.6-0.7,1.1-1.1c-0.3-0.1-0.5-0.2-0.6-0.4c-0.2-0.2-0.3-0.4-0.3-0.7c0-0.3,0.1-0.6,0.3-0.8
		c0.2-0.2,0.5-0.5,1-0.8c-0.4-0.2-0.7-0.5-0.9-0.9c-0.2-0.4-0.3-0.8-0.3-1.4c0-0.4,0.1-0.7,0.2-1.1c0.1-0.3,0.3-0.6,0.6-0.9
		c0.3-0.2,0.5-0.4,0.9-0.6c0.3-0.1,0.7-0.2,1.1-0.2c0.7,0,1.2,0.2,1.7,0.5c0.4,0,0.7-0.1,1.1-0.1c0.3,0,0.8,0,1.3,0
		c0,0.2,0,0.3,0,0.5c0,0.2,0,0.3-0.1,0.3c-0.1,0-0.2,0.1-0.3,0.1H131.3z M127.8,98.3c-0.4,0.3-0.7,0.6-0.9,0.9
		c-0.2,0.3-0.3,0.5-0.3,0.8c0,0.4,0.2,0.8,0.6,1c0.4,0.2,0.9,0.3,1.5,0.3c0.8,0,1.5-0.2,1.9-0.5c0.5-0.3,0.7-0.7,0.7-1.2
		c0-0.3-0.1-0.5-0.2-0.7c-0.1-0.2-0.4-0.3-0.7-0.4c-0.3-0.1-0.7-0.2-1.1-0.2C128.9,98.3,128.4,98.3,127.8,98.3 M128.9,95
		c0.5,0,0.9-0.2,1.2-0.5c0.3-0.3,0.5-0.8,0.5-1.3c0-0.6-0.2-1-0.5-1.4c-0.3-0.4-0.8-0.5-1.3-0.5c-0.5,0-0.9,0.2-1.2,0.5
		c-0.3,0.3-0.5,0.8-0.5,1.3c0,0.6,0.2,1,0.5,1.4C127.9,94.9,128.4,95,128.9,95"/>
	<path class="st2" d="M139.4,96.6l0.2,0.8c-0.8,0.6-1.6,0.8-2.5,0.8c-0.6,0-1-0.1-1.4-0.3c-0.4-0.2-0.8-0.5-1-0.8
		c-0.3-0.3-0.5-0.7-0.6-1.2c-0.1-0.5-0.2-1-0.2-1.5c0-0.5,0.1-1,0.2-1.4c0.1-0.5,0.4-0.9,0.7-1.3c0.3-0.4,0.6-0.7,1-0.9
		c0.4-0.2,0.9-0.3,1.4-0.3c0.4,0,0.8,0.1,1.1,0.2c0.3,0.1,0.6,0.3,0.8,0.6c0.2,0.3,0.4,0.6,0.5,0.9c0.1,0.3,0.2,0.7,0.2,1.1
		c0,0.2,0,0.4,0,0.5c-0.8,0.1-1.6,0.1-2.4,0.1c-0.8,0-1.6,0-2.4,0v0.3c0,0.4,0.1,0.8,0.2,1.1c0.1,0.3,0.3,0.7,0.5,0.9
		c0.2,0.3,0.5,0.5,0.8,0.6c0.3,0.2,0.6,0.2,1,0.2C138.1,97.3,138.7,97.1,139.4,96.6L139.4,96.6z M134.9,93.3c0.6,0,1.2,0,1.8,0
		c0.6,0,1.2,0,1.8-0.1c0-0.2,0-0.4-0.1-0.6c-0.1-0.2-0.2-0.4-0.3-0.6c-0.1-0.2-0.3-0.3-0.5-0.4c-0.2-0.1-0.4-0.2-0.7-0.2
		c-0.3,0-0.5,0.1-0.7,0.2c-0.2,0.1-0.4,0.3-0.6,0.4c-0.2,0.2-0.3,0.4-0.4,0.6C135.1,92.8,135,93,134.9,93.3"/>
	<path class="st2" d="M77,87.5c0-0.2,0.1-0.4,0.2-0.6c0.1-0.1,0.3-0.2,0.5-0.2c0.2,0,0.4,0.1,0.6,0.2c0.1,0.2,0.2,0.4,0.2,0.6
		c0,0.4-0.1,0.9-0.4,1.3c-0.3,0.5-0.6,0.9-0.9,1.3c-0.2-0.1-0.3-0.2-0.4-0.2c-0.1-0.1-0.1-0.1-0.1-0.2s0-0.1,0.1-0.2
		c0.1-0.1,0.1-0.2,0.2-0.3c0.1-0.1,0.2-0.3,0.3-0.5c0.1-0.2,0.2-0.4,0.2-0.6c-0.1-0.1-0.3-0.1-0.4-0.2C77,87.9,77,87.7,77,87.5"/>
</g>
</svg>
