<?xml version="1.0" standalone="no"?>
<!DOCTYPE svg PUBLIC "-//W3C//DTD SVG 20010904//EN"
 "http://www.w3.org/TR/2001/REC-SVG-20010904/DTD/svg10.dtd">
<svg version="1.0" xmlns="http://www.w3.org/2000/svg"
 width="400.000000pt" height="400.000000pt" viewBox="0 0 400.000000 400.000000"
 preserveAspectRatio="xMidYMid meet">

    <rect x="305" y="15" width="70" height="380" stroke="none" fill="#ffca00" />
    <rect x="10" y="15" width="380" height="70" stroke="none" fill="#ffca00" />
    <rect x="10" y="250" width="380" height="140" stroke="none" fill="#ffca00" />
    <rect x="25" y="15" width="70" height="380" stroke="none" fill="#ffca00" />
    <rect x="100" y="80" width="200" height="190" stroke="none" fill="#fff" />

<g transform="translate(0.000000,400.000000) scale(0.100000,-0.100000)"
fill="#2c2d88" stroke="none">

<path d="M0 2000 l0 -2000 2000 0 2000 0 0 2000 0 2000 -2000 0 -2000 0 0
-2000z m3143 1686 c119 -52 219 -160 269 -292 l23 -59 0 -1050 c0 -1042 0
-1051 -21 -1116 -47 -146 -154 -256 -302 -312 -55 -20 -80 -21 -644 -26 -578
-6 -587 -6 -610 -27 -13 -12 -90 -67 -173 -124 -82 -57 -204 -142 -270 -189
-66 -47 -143 -102 -171 -121 -29 -19 -112 -77 -185 -129 -163 -114 -196 -128
-253 -106 -99 39 -104 102 -25 300 102 253 150 387 146 399 -3 7 -23 18 -45
24 -113 34 -229 136 -281 247 -23 49 -35 93 -42 156 -6 54 -9 477 -7 1086 l3
998 24 60 c61 152 184 266 326 301 38 10 301 12 1110 11 l1060 -2 68 -29z"/>
<path d="M1075 3443 c-104 -23 -177 -81 -221 -177 l-24 -51 0 -939 0 -939 25
-51 c32 -66 83 -118 143 -148 l47 -23 945 0 c769 0 952 3 983 14 21 7 65 39
97 70 97 95 91 21 88 1102 l-3 934 -23 42 c-35 66 -79 110 -140 140 l-57 28
-920 1 c-506 1 -929 0 -940 -3z m1038 -593 c16 0 17 -31 17 -515 l0 -515 -56
0 c-30 0 -53 4 -50 8 9 15 -12 75 -43 124 -20 31 -48 58 -83 78 l-53 30 -277
-2 -276 -3 -44 -30 c-53 -38 -104 -111 -113 -165 -7 -40 -7 -40 -51 -40 l-44
0 0 518 0 517 527 -2 c291 -2 536 -3 546 -3z m645 -398 c30 -90 59 -165 66
-167 6 -2 37 -11 69 -20 l57 -16 0 -214 0 -215 -40 0 c-24 0 -42 5 -44 13 -2
6 -9 31 -15 54 -15 55 -65 116 -122 147 -60 33 -169 37 -227 7 -75 -39 -142
-132 -142 -196 0 -25 -1 -25 -75 -25 l-75 0 0 400 0 400 247 -2 246 -3 55
-163z m-1281 -498 c54 -40 68 -70 68 -142 0 -53 -5 -73 -22 -98 -56 -78 -190
-89 -259 -20 -62 63 -61 180 2 238 59 52 157 62 211 22z m377 3 c46 -26 86
-93 86 -144 0 -46 -21 -92 -59 -128 -30 -28 -37 -30 -111 -30 -73 0 -81 2
-109 29 -17 16 -38 49 -47 72 -55 143 106 278 240 201z m842 -2 c47 -27 84
-90 84 -142 0 -152 -196 -225 -295 -110 -124 145 46 349 211 252z"/>
<path d="M2280 2415 l0 -125 220 0 c203 0 220 1 220 18 0 9 -15 64 -33 122
l-33 105 -187 3 -187 2 0 -125z"/>

</g>

</svg>
